<svg width="24" height="24" viewBox="0 0 24 24" fill="none" xmlns="http://www.w3.org/2000/svg">
<path d="M5 6C6.10457 6 7 6.89543 7 8V21C7 22.0357 6.21278 22.887 5.2041 22.9893L5 23H3L2.7959 22.9893C1.85435 22.8938 1.1062 22.1457 1.01074 21.2041L1 21V8C1 6.89543 1.89543 6 3 6H5ZM13 13C14.1046 13 15 13.8954 15 15V21C15 22.0357 14.2128 22.887 13.2041 22.9893L13 23H11L10.7959 22.9893C9.85435 22.8938 9.1062 22.1457 9.01074 21.2041L9 21V15C9 13.8954 9.89543 13 11 13H13ZM21 1C22.1046 1 23 1.89543 23 3V21C23 22.0357 22.2128 22.887 21.2041 22.9893L21 23H19L18.7959 22.9893C17.8543 22.8938 17.1062 22.1457 17.0107 21.2041L17 21V3C17 1.89543 17.8954 1 19 1H21ZM19 2.5C18.7239 2.5 18.5 2.72386 18.5 3V21C18.5 21.2761 18.7239 21.5 19 21.5H21C21.2761 21.5 21.5 21.2761 21.5 21V3C21.5 2.72386 21.2761 2.5 21 2.5H19ZM3 7.5C2.72386 7.5 2.5 7.72386 2.5 8V21C2.5 21.2761 2.72386 21.5 3 21.5H5C5.27614 21.5 5.5 21.2761 5.5 21V8C5.5 7.72386 5.27614 7.5 5 7.5H3ZM11 14.5C10.7239 14.5 10.5 14.7239 10.5 15V21C10.5 21.2761 10.7239 21.5 11 21.5H13C13.2761 21.5 13.5 21.2761 13.5 21V15C13.5 14.7239 13.2761 14.5 13 14.5H11Z" fill="#282D32"/>
</svg>
