<svg width="24" height="24" viewBox="0 0 24 24" fill="none" xmlns="http://www.w3.org/2000/svg">
<path d="M14.0525 5.23401C14.1598 4.8342 14.5706 4.59677 14.9705 4.70374C15.3706 4.81094 15.6079 5.22258 15.5007 5.62268L15.2654 6.4967C16.9529 7.02132 18.5055 7.94883 19.7781 9.22131C21.2666 10.7098 22.2847 12.5815 22.7361 14.6041L22.8181 15.0104C23.0179 16.0967 22.1043 16.9996 20.9998 16.9996H19.2205L19.0164 16.9889C18.0104 16.8831 17.2296 16.0087 16.8425 15.0485L16.739 14.8082C16.4835 14.2557 16.1299 13.747 15.6912 13.3082L15.5037 13.1295C14.9952 12.6692 14.4045 12.3176 13.7683 12.0885L12.6433 16.2887C12.5361 16.6888 12.1245 16.9262 11.7244 16.819C11.3245 16.7117 11.0871 16.301 11.1941 15.901L12.2957 11.7877C12.1975 11.7822 12.0986 11.7789 11.9998 11.7789L11.741 11.7848C10.4506 11.8488 9.22623 12.3904 8.30835 13.3082C7.8068 13.8098 7.4171 14.4031 7.15698 15.0485C6.74407 16.0728 5.8834 16.9995 4.77905 16.9996H2.99976L2.79468 16.9889C1.78522 16.8854 0.994184 16.0286 1.1814 15.0104C1.55691 12.9686 2.50504 11.0625 3.93042 9.52405L4.22144 9.22131C6.15524 7.28754 8.73534 6.14834 11.4539 6.01331L11.9998 5.99963C12.6088 5.99963 13.2124 6.05329 13.8054 6.15198L14.0525 5.23401ZM11.9998 7.49963C9.48031 7.4997 7.06352 8.50036 5.28198 10.2819C3.91081 11.653 3.00191 13.4009 2.65601 15.2819C2.65072 15.3107 2.65437 15.3235 2.65601 15.3287C2.65858 15.3369 2.66688 15.3566 2.69116 15.3824C2.74461 15.439 2.85319 15.4996 2.99976 15.4996H4.77905C4.8866 15.4996 5.03692 15.4594 5.2312 15.2867C5.43407 15.1064 5.63087 14.824 5.76636 14.4879C6.10118 13.6572 6.60214 12.8933 7.2478 12.2477C8.50815 10.9874 10.2174 10.279 11.9998 10.2789C12.2313 10.2789 12.4619 10.2915 12.6902 10.3151L13.4158 7.60608C12.9499 7.53589 12.4766 7.49963 11.9998 7.49963ZM14.157 10.6364C15.125 10.9646 16.0152 11.5112 16.7517 12.2477C17.3973 12.8933 17.8983 13.6572 18.2332 14.4879C18.3686 14.8238 18.5655 15.1064 18.7683 15.2867C18.9624 15.4592 19.1129 15.4995 19.2205 15.4996H20.9998C21.1464 15.4996 21.2549 15.439 21.3083 15.3824C21.3328 15.3565 21.3409 15.3369 21.3435 15.3287C21.3451 15.3236 21.3488 15.311 21.3435 15.2819C20.9976 13.4009 20.0887 11.653 18.7175 10.2819C17.6328 9.19724 16.3121 8.40397 14.8767 7.94788L14.157 10.6364Z" fill="#282D32"/>
</svg>
