<svg width="24" height="24" viewBox="0 0 24 24" fill="none" xmlns="http://www.w3.org/2000/svg">
<path d="M21 1C22.0357 1 22.887 1.78722 22.9893 2.7959L23 3V20.5C23 21.6046 22.1046 22.5 21 22.5H4L3.7959 22.4893C2.85435 22.3938 2.1062 21.6457 2.01074 20.7041L2 20.5V3L2.01074 2.7959C2.1062 1.85435 2.85435 1.1062 3.7959 1.01074L4 1H21ZM9.5 21H21C21.2761 21 21.5 20.7761 21.5 20.5V17.5H9.5V21ZM3.5 20.5C3.5 20.7761 3.72386 21 4 21H8V17.5H3.5V20.5ZM9.5 16H21.5V12.5H9.5V16ZM3.5 16H8V12.5H3.5V16ZM9.5 11H21.5V7.5H9.5V11ZM3.5 11H8V7.5H3.5V11ZM9.5 6H21.5V3C21.5 2.72386 21.2761 2.5 21 2.5H9.5V6ZM4 2.5C3.72386 2.5 3.5 2.72386 3.5 3V6H8V2.5H4Z" fill="#282D32"/>
</svg>
