<svg width="24" height="24" viewBox="0 0 24 24" fill="none" xmlns="http://www.w3.org/2000/svg">
<path d="M2 1.25C2.41421 1.25 2.75 1.58579 2.75 2V17C2.75 19.3472 4.65279 21.25 7 21.25H22C22.4142 21.25 22.75 21.5858 22.75 22C22.75 22.4142 22.4142 22.75 22 22.75H7C3.82436 22.75 1.25 20.1756 1.25 17V2C1.25 1.58579 1.58579 1.25 2 1.25ZM16.21 14.5459C17.2398 13.6632 18.7602 13.6632 19.79 14.5459L21.9883 16.4307C22.3026 16.7003 22.3389 17.1738 22.0693 17.4883C21.7997 17.8026 21.3262 17.8388 21.0117 17.5693L18.8135 15.6855C18.3454 15.2843 17.6546 15.2843 17.1865 15.6855L15.6475 17.0039C15.0691 17.4996 14.3107 17.7335 13.5537 17.6494L10.2256 17.2793C10.0979 17.2651 9.96872 17.2707 9.84277 17.2959L5.14746 18.2354C4.74143 18.3165 4.34606 18.0534 4.26465 17.6475C4.18344 17.2414 4.44659 16.8461 4.85254 16.7646L9.54883 15.8252C9.82614 15.7698 10.1105 15.7578 10.3916 15.7891L13.7197 16.1582C14.0638 16.1964 14.408 16.0905 14.6709 15.8652L16.21 14.5459ZM16.6221 9.70898C17.3723 9.05252 18.4196 8.85318 19.3584 9.18848L21.752 10.0439C22.142 10.1832 22.3452 10.6119 22.2061 11.002C22.0668 11.392 21.6381 11.5952 21.248 11.4561L18.8535 10.6016C18.4268 10.4492 17.9514 10.5395 17.6104 10.8379L15.3936 12.7773C14.6316 13.4439 13.5651 13.6377 12.6172 13.2822L10.6406 12.541C10.2839 12.4072 9.88535 12.4437 9.55859 12.6396L5.38574 15.1436C5.0306 15.3564 4.5695 15.2408 4.35645 14.8857C4.14357 14.5306 4.25918 14.0695 4.61426 13.8564L8.78613 11.3535C9.50508 10.9221 10.3819 10.8423 11.167 11.1367L13.1436 11.8779C13.5744 12.0395 14.0599 11.9515 14.4062 11.6484L16.6221 9.70898ZM17.6729 5.42188C18.4791 4.93817 19.4764 4.89984 20.3174 5.32031L21.335 5.8291C21.7053 6.01428 21.8558 6.46455 21.6709 6.83496C21.4857 7.20529 21.0354 7.35583 20.665 7.1709L19.6465 6.66211C19.2642 6.47098 18.8108 6.48812 18.4443 6.70801L15.1299 8.69629C14.4773 9.08785 13.6918 9.19143 12.96 8.98242L10.6455 8.32129C10.5004 8.27982 10.3487 8.26483 10.1982 8.27734L4.5625 8.74707C4.14981 8.78145 3.78746 8.47514 3.75293 8.0625C3.71854 7.6498 4.02485 7.28746 4.4375 7.25293L10.0732 6.7832C10.4043 6.75561 10.7382 6.78764 11.0576 6.87891L13.3721 7.54004C13.7047 7.63499 14.0618 7.58811 14.3584 7.41016L17.6729 5.42188Z" fill="#282D32"/>
</svg>
