<svg width="121" height="35" viewBox="0 0 121 35" fill="none" xmlns="http://www.w3.org/2000/svg">
<path d="M23.7334 0C29.9015 -1.25513e-07 34.9016 5.01461 34.9014 11.2002V15.3311C34.8121 15.3199 34.7212 15.3125 34.6289 15.3125H8.72656C7.52189 15.3125 6.54492 16.2919 6.54492 17.5C6.54492 18.7081 7.52189 19.6875 8.72656 19.6875H34.6289C34.7213 19.6875 34.812 19.6791 34.9014 19.668V23.7998C34.9011 29.9853 29.9004 34.9998 23.7324 35H11.168C4.99987 35 -0.000275959 29.9854 0 23.7998V11.2002C0.000275954 5.01472 5.001 0.000179231 11.1689 0H23.7334ZM8.72656 24.0625C7.52189 24.0625 6.54492 25.0419 6.54492 26.25C6.54492 27.4581 7.52189 28.4375 8.72656 28.4375H23.9951C25.1998 28.4375 26.1768 27.4581 26.1768 26.25C26.1768 25.0419 25.1998 24.0625 23.9951 24.0625H8.72656ZM8.72656 6.5625C7.52189 6.56254 6.54492 7.5419 6.54492 8.75C6.54492 9.9581 7.52189 10.9375 8.72656 10.9375C9.93112 10.9373 10.9072 9.95801 10.9072 8.75C10.9072 7.54199 9.93112 6.56268 8.72656 6.5625ZM15.2705 6.5625C14.0658 6.56254 13.0889 7.5419 13.0889 8.75C13.0889 9.9581 14.0658 10.9375 15.2705 10.9375H23.9951C25.1998 10.9375 26.1768 9.95812 26.1768 8.75C26.1768 7.54188 25.1998 6.5625 23.9951 6.5625H15.2705Z" fill="#EFC72D"/>
<path d="M119.123 19.732C118.388 19.732 117.724 19.5511 117.133 19.1895C116.541 18.8133 116.079 18.3142 115.748 17.6922C115.416 17.0556 115.25 16.3323 115.25 15.5222V5.08446C115.25 4.79512 115.337 4.55642 115.51 4.36836C115.697 4.18029 115.935 4.08626 116.224 4.08626C116.512 4.08626 116.75 4.18029 116.938 4.36836C117.125 4.55642 117.219 4.79512 117.219 5.08446V15.5222C117.219 16.1732 117.399 16.7084 117.76 17.128C118.121 17.5475 118.575 17.7573 119.123 17.7573H119.794C120.039 17.7573 120.241 17.8513 120.4 18.0394C120.573 18.2274 120.66 18.4661 120.66 18.7555C120.66 19.0448 120.551 19.2835 120.335 19.4716C120.133 19.6452 119.866 19.732 119.534 19.732H119.123ZM114.081 10.0104C113.822 10.0104 113.605 9.93079 113.432 9.77166C113.259 9.61252 113.173 9.40999 113.173 9.16406C113.173 8.90366 113.259 8.69389 113.432 8.53476C113.605 8.37562 113.822 8.29606 114.081 8.29606H119.296C119.556 8.29606 119.772 8.37562 119.946 8.53476C120.119 8.69389 120.205 8.90366 120.205 9.16406C120.205 9.40999 120.119 9.61252 119.946 9.77166C119.772 9.93079 119.556 10.0104 119.296 10.0104H114.081Z" fill="#191D20"/>
<path d="M107.403 19.8188C106.263 19.8188 105.246 19.5584 104.352 19.0376C103.458 18.5023 102.751 17.7862 102.231 16.8893C101.727 15.9779 101.474 14.9507 101.474 13.8079C101.474 12.6361 101.719 11.5945 102.21 10.6831C102.715 9.77165 103.4 9.06279 104.265 8.55645C105.131 8.03565 106.134 7.77525 107.273 7.77525C108.124 7.77525 108.911 7.94162 109.632 8.27435C110.353 8.60709 110.995 9.10619 111.558 9.77165C111.745 9.97419 111.81 10.1912 111.752 10.4227C111.709 10.6541 111.565 10.8567 111.32 11.0303C111.147 11.1605 110.945 11.2039 110.714 11.1605C110.483 11.1171 110.281 10.9941 110.108 10.7916C109.343 9.96695 108.398 9.55465 107.273 9.55465C106.509 9.55465 105.831 9.73549 105.239 10.0972C104.662 10.4588 104.208 10.9579 103.876 11.5945C103.559 12.2165 103.4 12.9543 103.4 13.8079C103.4 14.618 103.566 15.3413 103.898 15.9779C104.244 16.6144 104.72 17.1207 105.326 17.4969C105.932 17.8585 106.624 18.0394 107.403 18.0394C107.937 18.0394 108.413 17.9743 108.831 17.8441C109.25 17.7139 109.625 17.5041 109.956 17.2148C110.158 17.0412 110.368 16.9471 110.584 16.9327C110.815 16.9182 111.017 16.9833 111.19 17.128C111.406 17.316 111.529 17.5258 111.558 17.7573C111.587 17.9887 111.507 18.1913 111.32 18.3649C110.281 19.3341 108.975 19.8188 107.403 19.8188Z" fill="#191D20"/>
<path d="M92.845 19.8188C91.7631 19.8188 90.7966 19.5584 89.9454 19.0376C89.0943 18.5168 88.4235 17.8007 87.933 16.8893C87.4426 15.9779 87.1973 14.9507 87.1973 13.8079C87.1973 12.6505 87.457 11.6234 87.9763 10.7265C88.5101 9.81505 89.2241 9.09895 90.1185 8.57815C91.0274 8.04289 92.0444 7.77525 93.1696 7.77525C94.3092 7.77525 95.3262 8.04289 96.2206 8.57815C97.115 9.09895 97.8219 9.81505 98.3412 10.7265C98.875 11.6379 99.1491 12.665 99.1635 13.8079L98.3845 14.0032C98.3845 15.1026 98.1393 16.0936 97.6488 16.9761C97.1583 17.8585 96.4947 18.5529 95.658 19.0593C94.8358 19.5656 93.8981 19.8188 92.845 19.8188ZM93.1696 18.0394C93.9486 18.0394 94.641 17.8585 95.2469 17.4969C95.8528 17.1207 96.3288 16.6144 96.675 15.9779C97.0357 15.3269 97.216 14.6035 97.216 13.8079C97.216 12.9977 97.0357 12.2744 96.675 11.6379C96.3288 10.9869 95.8528 10.4805 95.2469 10.1189C94.641 9.74272 93.9486 9.55465 93.1696 9.55465C92.4195 9.55465 91.7342 9.74272 91.1139 10.1189C90.4936 10.4805 90.0031 10.9869 89.6425 11.6379C89.2963 12.2744 89.1232 12.9977 89.1232 13.8079C89.1232 14.6035 89.2963 15.3269 89.6425 15.9779C90.0031 16.6144 90.4936 17.1207 91.1139 17.4969C91.7342 17.8585 92.4195 18.0394 93.1696 18.0394ZM98.1465 19.7537C97.858 19.7537 97.6199 19.6596 97.4324 19.4716C97.2449 19.2835 97.1511 19.0448 97.1511 18.7555V15.2835L97.5622 13.2003L99.1635 13.8079V18.7555C99.1635 19.0448 99.0625 19.2835 98.8605 19.4716C98.673 19.6596 98.435 19.7537 98.1465 19.7537Z" fill="#191D20"/>
<path d="M79.6548 12.354C79.6836 11.4715 79.9072 10.6831 80.3256 9.98866C80.7583 9.29426 81.3281 8.74452 82.035 8.33946C82.7419 7.93439 83.5209 7.73186 84.372 7.73186C85.1654 7.73186 85.7569 7.85482 86.1464 8.10076C86.5503 8.34669 86.7017 8.65772 86.6008 9.03386C86.5575 9.25086 86.4709 9.40999 86.3411 9.51126C86.2113 9.59806 86.0598 9.64869 85.8867 9.66316C85.7136 9.66316 85.526 9.64869 85.3241 9.61976C84.4441 9.47509 83.6579 9.49679 82.9655 9.68486C82.273 9.87292 81.7249 10.1984 81.3209 10.6614C80.917 11.1243 80.7151 11.6885 80.7151 12.354H79.6548ZM79.7197 19.732C79.4167 19.732 79.1787 19.6524 79.0056 19.4933C78.8325 19.3197 78.7459 19.0737 78.7459 18.7555V8.83856C78.7459 8.53476 78.8325 8.29606 79.0056 8.12246C79.1787 7.94886 79.4167 7.86206 79.7197 7.86206C80.0515 7.86206 80.2967 7.94886 80.4554 8.12246C80.6285 8.28159 80.7151 8.52029 80.7151 8.83856V18.7555C80.7151 19.0593 80.6285 19.298 80.4554 19.4716C80.2967 19.6452 80.0515 19.732 79.7197 19.732Z" fill="#191D20"/>
<path d="M74.843 19.732C74.1073 19.732 73.4437 19.5511 72.8523 19.1895C72.2608 18.8133 71.7992 18.3142 71.4674 17.6922C71.1356 17.0556 70.9697 16.3323 70.9697 15.5222V5.08446C70.9697 4.79512 71.0563 4.55642 71.2294 4.36836C71.4169 4.18029 71.6549 4.08626 71.9434 4.08626C72.232 4.08626 72.47 4.18029 72.6575 4.36836C72.8451 4.55642 72.9388 4.79512 72.9388 5.08446V15.5222C72.9388 16.1732 73.1191 16.7084 73.4798 17.128C73.8404 17.5475 74.2948 17.7573 74.843 17.7573H75.5138C75.7591 17.7573 75.961 17.8513 76.1197 18.0394C76.2928 18.2274 76.3794 18.4661 76.3794 18.7555C76.3794 19.0448 76.2712 19.2835 76.0548 19.4716C75.8528 19.6452 75.5859 19.732 75.2542 19.732H74.843ZM69.8012 10.0104C69.5416 10.0104 69.3252 9.93079 69.1521 9.77166C68.979 9.61252 68.8924 9.40999 68.8924 9.16406C68.8924 8.90366 68.979 8.69389 69.1521 8.53476C69.3252 8.37562 69.5416 8.29606 69.8012 8.29606H75.0161C75.2758 8.29606 75.4922 8.37562 75.6653 8.53476C75.8384 8.69389 75.925 8.90366 75.925 9.16406C75.925 9.40999 75.8384 9.61252 75.6653 9.77166C75.4922 9.93079 75.2758 10.0104 75.0161 10.0104H69.8012Z" fill="#191D20"/>
<path d="M67.0594 19.732C66.9007 19.732 66.7636 19.7103 66.6482 19.6669C66.5328 19.609 66.4174 19.5077 66.302 19.3631L62.5153 14.7193L61.8012 14.0249L58.0361 9.42445C57.8485 9.22192 57.7548 8.99769 57.7548 8.75175C57.7548 8.50582 57.8269 8.29605 57.9711 8.12245C58.1154 7.94885 58.3318 7.86205 58.6203 7.86205C58.9232 7.86205 59.1757 7.97055 59.3777 8.18755L63.0562 12.7012L63.6188 13.222L67.6653 18.213C67.8672 18.4589 67.961 18.6976 67.9466 18.9291C67.9321 19.1605 67.8384 19.3558 67.6653 19.515C67.5066 19.6596 67.3046 19.732 67.0594 19.732ZM58.6852 19.732C58.4111 19.732 58.1947 19.6524 58.0361 19.4933C57.8918 19.3197 57.8197 19.1171 57.8197 18.8857C57.8197 18.6397 57.9062 18.401 58.0793 18.1696L61.8877 13.3956L62.9697 14.8929L59.3777 19.4282C59.2045 19.6307 58.9737 19.732 58.6852 19.732ZM63.9218 14.1334L62.6018 12.9182L66.1722 8.23095C66.2876 8.08629 66.403 7.99225 66.5184 7.94885C66.6482 7.89099 66.7925 7.86205 66.9512 7.86205C67.2397 7.86205 67.4561 7.95609 67.6003 8.14415C67.7446 8.31775 67.8095 8.52752 67.7951 8.77345C67.7951 9.01939 67.7085 9.25809 67.5354 9.48955L63.9218 14.1334Z" fill="#191D20"/>
<path d="M45.9186 19.732C45.6301 19.732 45.3848 19.6379 45.1829 19.4499C44.9953 19.2473 44.9016 19.0014 44.9016 18.7121V3.80416C44.9016 3.50036 44.9953 3.25442 45.1829 3.06636C45.3848 2.87829 45.6301 2.78426 45.9186 2.78426H55.8507C56.1392 2.78426 56.3773 2.87829 56.5648 3.06636C56.7523 3.23996 56.8461 3.47142 56.8461 3.76076C56.8461 4.02116 56.7523 4.24539 56.5648 4.43346C56.3773 4.60706 56.1392 4.69386 55.8507 4.69386H46.9356V10.2491H53.3623C53.6652 10.2491 53.9033 10.3431 54.0764 10.5312C54.2639 10.7048 54.3577 10.929 54.3577 11.2039C54.3577 11.4787 54.2639 11.7102 54.0764 11.8983C53.9033 12.0719 53.6652 12.1587 53.3623 12.1587H46.9356V17.8224H55.8507C56.1392 17.8224 56.3773 17.9164 56.5648 18.1045C56.7523 18.2781 56.8461 18.4951 56.8461 18.7555C56.8461 19.0448 56.7523 19.2835 56.5648 19.4716C56.3773 19.6452 56.1392 19.732 55.8507 19.732H45.9186Z" fill="#191D20"/>
<path d="M88.4773 30.4591C88.3747 30.4591 88.2916 30.4273 88.2281 30.3636C88.1646 30.2999 88.1328 30.219 88.1328 30.121V26.7768C88.1328 26.6739 88.1646 26.593 88.2281 26.5342C88.2916 26.4705 88.3747 26.4387 88.4773 26.4387C88.575 26.4387 88.6556 26.4705 88.7192 26.5342C88.7827 26.593 88.8144 26.6739 88.8144 26.7768V30.121C88.8144 30.219 88.7827 30.2999 88.7192 30.3636C88.6556 30.4273 88.575 30.4591 88.4773 30.4591ZM88.47 25.7404C88.3478 25.7404 88.2428 25.6963 88.1548 25.6081C88.0669 25.5199 88.0229 25.4121 88.0229 25.2847C88.0229 25.1573 88.0669 25.052 88.1548 24.9687C88.2477 24.8805 88.3551 24.8364 88.4773 24.8364C88.5946 24.8364 88.6972 24.8805 88.7851 24.9687C88.878 25.052 88.9244 25.1573 88.9244 25.2847C88.9244 25.4121 88.8804 25.5199 88.7925 25.6081C88.7045 25.6963 88.597 25.7404 88.47 25.7404Z" fill="#727981"/>
<path d="M84.7996 30.4885C84.4332 30.4885 84.1058 30.4003 83.8175 30.2239C83.5292 30.0475 83.302 29.805 83.1359 29.4963C82.9698 29.1876 82.8867 28.8397 82.8867 28.4526C82.8867 28.0606 82.9747 27.7127 83.1506 27.4089C83.3314 27.1002 83.5732 26.8576 83.8762 26.6812C84.184 26.4999 84.5285 26.4093 84.9096 26.4093C85.2956 26.4093 85.6401 26.4999 85.943 26.6812C86.2459 26.8576 86.4854 27.1002 86.6613 27.4089C86.8421 27.7176 86.9349 28.0655 86.9398 28.4526L86.6759 28.5187C86.6759 28.8911 86.5929 29.2268 86.4267 29.5257C86.2606 29.8246 86.0358 30.0598 85.7524 30.2313C85.4739 30.4028 85.1563 30.4885 84.7996 30.4885ZM84.9096 29.8858C85.1734 29.8858 85.408 29.8246 85.6132 29.7021C85.8184 29.5747 85.9796 29.4032 86.0969 29.1876C86.2191 28.9671 86.2801 28.7221 86.2801 28.4526C86.2801 28.1782 86.2191 27.9332 86.0969 27.7176C85.9796 27.4971 85.8184 27.3256 85.6132 27.2031C85.408 27.0757 85.1734 27.012 84.9096 27.012C84.6555 27.012 84.4234 27.0757 84.2133 27.2031C84.0032 27.3256 83.8371 27.4971 83.7149 27.7176C83.5977 27.9332 83.539 28.1782 83.539 28.4526C83.539 28.7221 83.5977 28.9671 83.7149 29.1876C83.8371 29.4032 84.0032 29.5747 84.2133 29.7021C84.4234 29.8246 84.6555 29.8858 84.9096 29.8858ZM86.5953 30.4665C86.4976 30.4665 86.417 30.4346 86.3534 30.3709C86.2899 30.3072 86.2582 30.2264 86.2582 30.1284V28.9524L86.3974 28.2468L86.9398 28.4526V30.1284C86.9398 30.2264 86.9056 30.3072 86.8372 30.3709C86.7736 30.4346 86.693 30.4665 86.5953 30.4665Z" fill="#727981"/>
<path d="M81.586 30.5767C81.4541 30.5767 81.3417 30.5302 81.2489 30.4371C81.156 30.344 81.1096 30.2313 81.1096 30.099C81.1096 29.9667 81.156 29.854 81.2489 29.7609C81.3466 29.6629 81.459 29.6139 81.586 29.6139C81.7179 29.6139 81.8303 29.6629 81.9232 29.7609C82.016 29.854 82.0624 29.9667 82.0624 30.099C82.0624 30.2264 82.016 30.3391 81.9232 30.4371C81.8303 30.5302 81.7179 30.5767 81.586 30.5767Z" fill="#727981"/>
<path d="M78.7338 30.4885C78.3282 30.4885 77.9691 30.4028 77.6564 30.2313C77.3485 30.0549 77.1067 29.8148 76.9308 29.511C76.7549 29.2023 76.6669 28.8495 76.6669 28.4526C76.6669 28.0508 76.75 27.698 76.9161 27.3942C77.0823 27.0855 77.3119 26.8454 77.6051 26.6739C77.8982 26.4975 78.2378 26.4093 78.6238 26.4093C79.0001 26.4093 79.325 26.495 79.5986 26.6665C79.8722 26.8331 80.0823 27.0659 80.2289 27.3648C80.3755 27.6588 80.4488 27.9993 80.4488 28.3864C80.4488 28.4697 80.4195 28.5408 80.3609 28.5996C80.3071 28.6535 80.2338 28.6804 80.141 28.6804H77.1287V28.1365H80.1483L79.8478 28.3497C79.8429 28.09 79.7916 27.8572 79.6939 27.6514C79.5962 27.4456 79.4569 27.2839 79.2761 27.1663C79.0953 27.0487 78.8779 26.9899 78.6238 26.9899C78.3453 26.9899 78.1035 27.0536 77.8982 27.181C77.6979 27.3084 77.544 27.4824 77.4365 27.7029C77.329 27.9234 77.2753 28.1733 77.2753 28.4526C77.2753 28.7319 77.3363 28.9818 77.4585 29.2023C77.5855 29.4179 77.7565 29.5894 77.9715 29.7168C78.1914 29.8442 78.4455 29.9079 78.7338 29.9079C78.8901 29.9079 79.0514 29.8785 79.2175 29.8197C79.3885 29.7609 79.5229 29.6923 79.6206 29.6139C79.689 29.56 79.7623 29.533 79.8405 29.533C79.9187 29.5281 79.9871 29.5502 80.0457 29.5992C80.119 29.6678 80.1581 29.7437 80.163 29.827C80.1679 29.9054 80.1336 29.974 80.0604 30.0328C79.8942 30.1651 79.6866 30.2754 79.4374 30.3636C79.1931 30.4469 78.9585 30.4885 78.7338 30.4885Z" fill="#727981"/>
<path d="M75.4329 30.4591C75.1837 30.4591 74.959 30.3979 74.7586 30.2754C74.5583 30.148 74.4019 29.9789 74.2896 29.7682C74.1772 29.5526 74.121 29.3076 74.121 29.0332V25.4979C74.121 25.3999 74.1503 25.319 74.2089 25.2553C74.2725 25.1916 74.3531 25.1598 74.4508 25.1598C74.5485 25.1598 74.6292 25.1916 74.6927 25.2553C74.7562 25.319 74.788 25.3999 74.788 25.4979V29.0332C74.788 29.2537 74.849 29.435 74.9712 29.5771C75.0933 29.7192 75.2472 29.7903 75.4329 29.7903H75.6601C75.7432 29.7903 75.8116 29.8221 75.8653 29.8858C75.924 29.9495 75.9533 30.0304 75.9533 30.1284C75.9533 30.2264 75.9167 30.3072 75.8434 30.3709C75.775 30.4297 75.6846 30.4591 75.5722 30.4591H75.4329ZM73.7252 27.1663C73.6373 27.1663 73.564 27.1394 73.5053 27.0855C73.4467 27.0316 73.4174 26.963 73.4174 26.8797C73.4174 26.7915 73.4467 26.7204 73.5053 26.6665C73.564 26.6126 73.6373 26.5857 73.7252 26.5857H75.4916C75.5795 26.5857 75.6528 26.6126 75.7114 26.6665C75.7701 26.7204 75.7994 26.7915 75.7994 26.8797C75.7994 26.963 75.7701 27.0316 75.7114 27.0855C75.6528 27.1394 75.5795 27.1663 75.4916 27.1663H73.7252Z" fill="#727981"/>
<path d="M70.6852 30.4885C70.3187 30.4885 69.9913 30.4003 69.7031 30.2239C69.4148 30.0475 69.1876 29.805 69.0214 29.4963C68.8553 29.1876 68.7722 28.8397 68.7722 28.4526C68.7722 28.0606 68.8602 27.7127 69.0361 27.4089C69.2169 27.1002 69.4588 26.8576 69.7617 26.6812C70.0695 26.4999 70.414 26.4093 70.7951 26.4093C71.1811 26.4093 71.5256 26.4999 71.8285 26.6812C72.1315 26.8576 72.3709 27.1002 72.5468 27.4089C72.7276 27.7176 72.8204 28.0655 72.8253 28.4526L72.5615 28.5187C72.5615 28.8911 72.4784 29.2268 72.3123 29.5257C72.1461 29.8246 71.9214 30.0598 71.638 30.2313C71.3595 30.4028 71.0419 30.4885 70.6852 30.4885ZM70.7951 29.8858C71.059 29.8858 71.2935 29.8246 71.4987 29.7021C71.7039 29.5747 71.8652 29.4032 71.9824 29.1876C72.1046 28.9671 72.1657 28.7221 72.1657 28.4526C72.1657 28.1782 72.1046 27.9332 71.9824 27.7176C71.8652 27.4971 71.7039 27.3256 71.4987 27.2031C71.2935 27.0757 71.059 27.012 70.7951 27.012C70.541 27.012 70.3089 27.0757 70.0988 27.2031C69.8887 27.3256 69.7226 27.4971 69.6004 27.7176C69.4832 27.9332 69.4245 28.1782 69.4245 28.4526C69.4245 28.7221 69.4832 28.9671 69.6004 29.1876C69.7226 29.4032 69.8887 29.5747 70.0988 29.7021C70.3089 29.8246 70.541 29.8858 70.7951 29.8858ZM72.4808 30.4665C72.3831 30.4665 72.3025 30.4346 72.239 30.3709C72.1754 30.3072 72.1437 30.2264 72.1437 30.1284V28.9524L72.2829 28.2468L72.8253 28.4526V30.1284C72.8253 30.2264 72.7911 30.3072 72.7227 30.3709C72.6592 30.4346 72.5786 30.4665 72.4808 30.4665Z" fill="#727981"/>
<path d="M66.1002 27.9601C66.11 27.6612 66.1858 27.3942 66.3275 27.159C66.474 26.9238 66.667 26.7376 66.9065 26.6004C67.1459 26.4632 67.4097 26.3946 67.698 26.3946C67.9668 26.3946 68.1671 26.4362 68.299 26.5195C68.4358 26.6028 68.4871 26.7082 68.4529 26.8356C68.4383 26.9091 68.409 26.963 68.365 26.9973C68.321 27.0267 68.2697 27.0438 68.2111 27.0487C68.1524 27.0487 68.0889 27.0438 68.0205 27.034C67.7224 26.985 67.4562 26.9924 67.2216 27.0561C66.9871 27.1198 66.8014 27.23 66.6646 27.3868C66.5278 27.5436 66.4594 27.7347 66.4594 27.9601H66.1002ZM66.1222 30.4591C66.0196 30.4591 65.939 30.4322 65.8804 30.3783C65.8217 30.3195 65.7924 30.2362 65.7924 30.1284V26.7694C65.7924 26.6665 65.8217 26.5857 65.8804 26.5269C65.939 26.4681 66.0196 26.4387 66.1222 26.4387C66.2346 26.4387 66.3177 26.4681 66.3714 26.5269C66.4301 26.5808 66.4594 26.6616 66.4594 26.7694V30.1284C66.4594 30.2313 66.4301 30.3121 66.3714 30.3709C66.3177 30.4297 66.2346 30.4591 66.1222 30.4591Z" fill="#727981"/>
<path d="M63.1234 30.4885C62.7178 30.4885 62.3587 30.4028 62.046 30.2313C61.7382 30.0549 61.4963 29.8148 61.3204 29.511C61.1445 29.2023 61.0565 28.8495 61.0565 28.4526C61.0565 28.0508 61.1396 27.698 61.3057 27.3942C61.4719 27.0855 61.7015 26.8454 61.9947 26.6739C62.2879 26.4975 62.6274 26.4093 63.0134 26.4093C63.3897 26.4093 63.7146 26.495 63.9882 26.6665C64.2619 26.8331 64.472 27.0659 64.6185 27.3648C64.7651 27.6588 64.8384 27.9993 64.8384 28.3864C64.8384 28.4697 64.8091 28.5408 64.7505 28.5996C64.6967 28.6535 64.6234 28.6804 64.5306 28.6804H61.5183V28.1365H64.5379L64.2374 28.3497C64.2325 28.09 64.1812 27.8572 64.0835 27.6514C63.9858 27.4456 63.8465 27.2839 63.6657 27.1663C63.485 27.0487 63.2675 26.9899 63.0134 26.9899C62.7349 26.9899 62.4931 27.0536 62.2879 27.181C62.0875 27.3084 61.9336 27.4824 61.8261 27.7029C61.7186 27.9234 61.6649 28.1733 61.6649 28.4526C61.6649 28.7319 61.7259 28.9818 61.8481 29.2023C61.9751 29.4179 62.1462 29.5894 62.3611 29.7168C62.581 29.8442 62.8351 29.9079 63.1234 29.9079C63.2797 29.9079 63.441 29.8785 63.6071 29.8197C63.7781 29.7609 63.9125 29.6923 64.0102 29.6139C64.0786 29.56 64.1519 29.533 64.2301 29.533C64.3083 29.5281 64.3767 29.5502 64.4353 29.5992C64.5086 29.6678 64.5477 29.7437 64.5526 29.827C64.5575 29.9054 64.5233 29.974 64.45 30.0328C64.2838 30.1651 64.0762 30.2754 63.827 30.3636C63.5827 30.4469 63.3481 30.4885 63.1234 30.4885Z" fill="#727981"/>
<path d="M59.8225 30.4591C59.5733 30.4591 59.3486 30.3979 59.1483 30.2754C58.9479 30.148 58.7916 29.9789 58.6792 29.7682C58.5668 29.5526 58.5106 29.3076 58.5106 29.0332V25.4979C58.5106 25.3999 58.5399 25.319 58.5986 25.2553C58.6621 25.1916 58.7427 25.1598 58.8404 25.1598C58.9381 25.1598 59.0188 25.1916 59.0823 25.2553C59.1458 25.319 59.1776 25.3999 59.1776 25.4979V29.0332C59.1776 29.2537 59.2386 29.435 59.3608 29.5771C59.483 29.7192 59.6369 29.7903 59.8225 29.7903H60.0497C60.1328 29.7903 60.2012 29.8221 60.255 29.8858C60.3136 29.9495 60.3429 30.0304 60.3429 30.1284C60.3429 30.2264 60.3063 30.3072 60.233 30.3709C60.1646 30.4297 60.0742 30.4591 59.9618 30.4591H59.8225ZM58.1148 27.1663C58.0269 27.1663 57.9536 27.1394 57.895 27.0855C57.8363 27.0316 57.807 26.963 57.807 26.8797C57.807 26.7915 57.8363 26.7204 57.895 26.6665C57.9536 26.6126 58.0269 26.5857 58.1148 26.5857H59.8812C59.9691 26.5857 60.0424 26.6126 60.1011 26.6665C60.1597 26.7204 60.189 26.7915 60.189 26.8797C60.189 26.963 60.1597 27.0316 60.1011 27.0855C60.0424 27.1394 59.9691 27.1663 59.8812 27.1663H58.1148Z" fill="#727981"/>
<path d="M56.5834 30.4591C56.4857 30.4591 56.4026 30.4273 56.3342 30.3636C56.2707 30.295 56.239 30.2117 56.239 30.1137V25.0642C56.239 24.9613 56.2707 24.878 56.3342 24.8143C56.4026 24.7506 56.4857 24.7188 56.5834 24.7188C56.686 24.7188 56.7691 24.7506 56.8326 24.8143C56.8961 24.878 56.9279 24.9613 56.9279 25.0642V30.1137C56.9279 30.2117 56.8961 30.295 56.8326 30.3636C56.7691 30.4273 56.686 30.4591 56.5834 30.4591Z" fill="#727981"/>
<path d="M50.7497 32.2158C50.7057 32.2158 50.6544 32.2035 50.5958 32.179C50.4003 32.0908 50.3466 31.9512 50.4345 31.7601L52.7212 26.6298C52.8092 26.4436 52.9484 26.3897 53.139 26.4681C53.3393 26.5514 53.3955 26.691 53.3076 26.887L51.0135 32.01C50.9549 32.1472 50.8669 32.2158 50.7497 32.2158ZM51.5999 30.3121C51.5119 30.3513 51.4313 30.3562 51.358 30.3268C51.2847 30.2974 51.2261 30.2411 51.1821 30.1578L49.5184 26.8797C49.4744 26.7964 49.4671 26.7155 49.4964 26.6371C49.5306 26.5587 49.5917 26.5024 49.6796 26.4681C49.7627 26.4289 49.8409 26.424 49.9141 26.4534C49.9923 26.4779 50.051 26.5342 50.09 26.6224L51.6951 29.8932C51.744 29.9814 51.7611 30.0647 51.7464 30.1431C51.7318 30.2166 51.6829 30.2729 51.5999 30.3121Z" fill="#727981"/>
<path d="M45.2607 30.4591C45.1581 30.4591 45.0726 30.4273 45.0042 30.3636C44.9358 30.295 44.9016 30.2117 44.9016 30.1137V25.0642C44.9016 24.9613 44.9333 24.878 44.9969 24.8143C45.0653 24.7506 45.1483 24.7188 45.2461 24.7188H47.0124C47.3251 24.7188 47.6036 24.7825 47.8479 24.9099C48.0971 25.0373 48.2926 25.2137 48.4343 25.4391C48.576 25.6645 48.6468 25.9242 48.6468 26.2182C48.6468 26.4681 48.5784 26.6935 48.4416 26.8944C48.3097 27.0904 48.1313 27.2423 47.9066 27.3501C48.229 27.4334 48.488 27.5926 48.6835 27.8278C48.8838 28.063 48.984 28.3668 48.984 28.7392C48.984 29.0773 48.9058 29.3762 48.7494 29.6359C48.5931 29.8907 48.3756 30.0916 48.0971 30.2386C47.8235 30.3856 47.5083 30.4591 47.1516 30.4591H45.2607ZM45.5905 29.8123H47.1516C47.3813 29.8123 47.5816 29.7707 47.7526 29.6874C47.9285 29.6041 48.0654 29.484 48.1631 29.3272C48.2657 29.1655 48.317 28.9695 48.317 28.7392C48.317 28.5236 48.2657 28.3423 48.1631 28.1953C48.0654 28.0483 47.9285 27.9356 47.7526 27.8572C47.5816 27.7788 47.3813 27.7396 47.1516 27.7396H45.5905V29.8123ZM45.5905 27.0928H47.0124C47.2958 27.0928 47.5279 27.0193 47.7087 26.8723C47.8943 26.7204 47.9872 26.5024 47.9872 26.2182C47.9872 25.934 47.8943 25.7208 47.7087 25.5787C47.5279 25.4366 47.2958 25.3656 47.0124 25.3656H45.5905V27.0928Z" fill="#727981"/>
</svg>
