<svg width="24" height="24" viewBox="0 0 24 24" fill="none" xmlns="http://www.w3.org/2000/svg">
<path d="M4.37211 17.6963H4.40824L5.58109 16.3145H6.24613L5.08402 17.6641L6.25687 19.3213H5.6016L4.70512 18.0322L4.37211 18.4258V19.3213H3.82719V16.3145H4.37211V17.6963ZM7.75199 16.3145C7.98282 16.3145 8.1775 16.3583 8.33402 16.4443C8.49117 16.5304 8.61033 16.6485 8.69047 16.7988C8.77165 16.9485 8.81254 17.1198 8.81254 17.3105C8.81247 17.5031 8.77159 17.6746 8.69047 17.8242C8.60932 17.9737 8.48933 18.0917 8.33109 18.1777C8.17264 18.2628 7.97691 18.3056 7.74515 18.3057H7.16996V19.3213H6.62504V16.3145H7.75199ZM9.83012 19.3213H9.28519V16.3145H9.83012V19.3213ZM7.16996 17.8574H7.67191C7.80654 17.8574 7.91701 17.8339 8.00297 17.7871C8.08889 17.7402 8.1533 17.6758 8.19437 17.5938C8.23635 17.5117 8.25779 17.417 8.25785 17.3105C8.25785 17.204 8.23636 17.1095 8.19437 17.0283C8.15332 16.9472 8.08894 16.8839 8.00199 16.8389C7.91599 16.7929 7.80475 16.7696 7.66898 16.7695H7.16996V17.8574ZM6.71586 5C7.48039 5 8.14102 5.16998 8.6973 5.50977C9.25349 5.84677 9.68201 6.33881 9.98344 6.98535C10.2849 7.63205 10.4344 8.41736 10.4317 9.34082C10.4317 10.2697 10.2809 11.0642 9.97953 11.7246C9.67809 12.385 9.24969 12.8914 8.6934 13.2422C8.13985 13.5902 7.48041 13.7637 6.71586 13.7637C5.95137 13.7609 5.29066 13.5841 4.73441 13.2334C4.17829 12.8826 3.74966 12.3771 3.44828 11.7168C3.14684 11.0564 2.9973 10.2643 3.00004 9.34082C3.00279 8.41462 3.1535 7.62814 3.45219 6.98145C3.75358 6.33483 4.18099 5.84292 4.73441 5.50586C5.29066 5.16882 5.95137 5.00002 6.71586 5ZM6.71586 6.8418C6.32142 6.84185 5.99935 7.04158 5.75004 7.44141C5.50067 7.84148 5.37369 8.47492 5.3682 9.34082C5.36546 9.92991 5.42111 10.415 5.53617 10.7959C5.65124 11.174 5.81001 11.4539 6.01273 11.6348C6.21822 11.8156 6.45285 11.9062 6.71586 11.9062C7.11047 11.9062 7.43445 11.7001 7.68656 11.2891C7.94126 10.8753 8.06723 10.2257 8.06449 9.34082C8.06448 8.76268 8.00671 8.29003 7.89164 7.92285C7.77662 7.55588 7.61768 7.28477 7.41508 7.10938C7.21229 6.93125 6.97893 6.8418 6.71586 6.8418Z" fill="#282D32"/>
<path d="M15.3721 17.6963H15.4082L16.5811 16.3145H17.2461L16.084 17.6641L17.2569 19.3213H16.6016L15.7051 18.0322L15.3721 18.4258V19.3213H14.8272V16.3145H15.3721V17.6963ZM18.752 16.3145C18.9828 16.3145 19.1775 16.3583 19.334 16.4443C19.4912 16.5304 19.6103 16.6485 19.6905 16.7988C19.7716 16.9485 19.8125 17.1198 19.8125 17.3105C19.8125 17.5031 19.7716 17.6746 19.6905 17.8242C19.6093 17.9737 19.4893 18.0917 19.3311 18.1777C19.1726 18.2628 18.9769 18.3056 18.7452 18.3057H18.17V19.3213H17.625V16.3145H18.752ZM20.8301 19.3213H20.2852V16.3145H20.8301V19.3213ZM18.17 17.8574H18.6719C18.8065 17.8574 18.917 17.8339 19.003 17.7871C19.0889 17.7402 19.1533 17.6758 19.1944 17.5938C19.2364 17.5117 19.2578 17.417 19.2578 17.3105C19.2578 17.204 19.2364 17.1095 19.1944 17.0283C19.1533 16.9472 19.0889 16.8839 19.002 16.8389C18.916 16.7929 18.8047 16.7696 18.669 16.7695H18.17V17.8574ZM17.7159 5C18.4804 5 19.141 5.16998 19.6973 5.50977C20.2535 5.84677 20.682 6.33881 20.9834 6.98535C21.2849 7.63205 21.4344 8.41736 21.4317 9.34082C21.4317 10.2697 21.2809 11.0642 20.9795 11.7246C20.6781 12.385 20.2497 12.8914 19.6934 13.2422C19.1398 13.5902 18.4804 13.7637 17.7159 13.7637C16.9514 13.7609 16.2907 13.5841 15.7344 13.2334C15.1783 12.8826 14.7497 12.3771 14.4483 11.7168C14.1468 11.0564 13.9973 10.2643 14 9.34082C14.0028 8.41462 14.1535 7.62814 14.4522 6.98145C14.7536 6.33483 15.181 5.84292 15.7344 5.50586C16.2907 5.16882 16.9514 5.00002 17.7159 5ZM17.7159 6.8418C17.3214 6.84185 16.9993 7.04158 16.75 7.44141C16.5007 7.84148 16.3737 8.47492 16.3682 9.34082C16.3655 9.92991 16.4211 10.415 16.5362 10.7959C16.6512 11.174 16.81 11.4539 17.0127 11.6348C17.2182 11.8156 17.4528 11.9062 17.7159 11.9062C18.1105 11.9062 18.4344 11.7001 18.6866 11.2891C18.9413 10.8753 19.0672 10.2257 19.0645 9.34082C19.0645 8.76268 19.0067 8.29003 18.8916 7.92285C18.7766 7.55588 18.6177 7.28477 18.4151 7.10938C18.2123 6.93125 17.9789 6.8418 17.7159 6.8418Z" fill="#282D32"/>
</svg>
