<svg width="24" height="24" viewBox="0 0 24 24" fill="none" xmlns="http://www.w3.org/2000/svg">
<path d="M8.51468 4.20953C9.59468 3.97881 10.4998 4.89522 10.5 5.99957V12.5494C10.5 13.1504 10.7706 13.7203 11.2364 14.1002L16.3135 18.2388C17.1692 18.9368 17.3074 20.2175 16.4463 20.9088L16.1719 21.1207C15.522 21.6043 14.8101 22.0047 14.0528 22.3101L13.7725 22.4185C12.4583 22.9007 11.0536 23.0864 9.65921 22.9625L9.36038 22.9312C7.86838 22.7509 6.44186 22.2187 5.1973 21.3814L4.95023 21.2105C3.73051 20.3326 2.73778 19.1782 2.05179 17.8443L1.91898 17.5757C1.27424 16.2182 0.961062 14.7275 1.00394 13.2281L1.01761 12.9283C1.11407 11.3284 1.61336 9.77824 2.46976 8.4234C3.27275 7.15321 4.3651 6.09259 5.6553 5.3277L5.91605 5.17828C6.63116 4.78437 7.39138 4.48574 8.17679 4.28766L8.51468 4.20953ZM8.82816 5.67633C8.06566 5.83928 7.32789 6.11361 6.63968 6.49274C5.45744 7.14408 4.45859 8.08423 3.73734 9.22516C3.0162 10.3661 2.59587 11.6718 2.51468 13.0191C2.43362 14.3664 2.69446 15.713 3.27347 16.9322C3.8526 18.1514 4.73166 19.2042 5.82718 19.9927C6.92279 20.7812 8.19999 21.28 9.54007 21.442C10.8801 21.6039 12.2394 21.4242 13.4912 20.9195C14.2199 20.6257 14.8988 20.2268 15.5069 19.7388C15.518 19.7299 15.5229 19.724 15.5235 19.7232V19.7222C15.524 19.7212 15.5255 19.718 15.5264 19.7125C15.5274 19.7056 15.5284 19.6943 15.5274 19.6793C15.5224 19.6093 15.4794 19.494 15.3653 19.4009L10.2881 15.2623C9.47308 14.5976 9.00003 13.6011 9.00003 12.5494V5.99957C8.99992 5.85227 8.93785 5.74664 8.88675 5.69879C8.87548 5.68827 8.86631 5.68176 8.86038 5.67828C8.85528 5.6753 8.85236 5.67365 8.85159 5.6734H8.85062C8.8496 5.67336 8.84221 5.67333 8.82816 5.67633ZM19.6651 10.2769C20.7196 9.94923 21.8633 10.5406 21.9639 11.6402L21.9873 11.9683C22.0304 12.7322 21.9814 13.5018 21.8389 14.2593L21.7715 14.5826C21.603 15.3334 21.3447 16.0588 21.003 16.7437C20.5406 17.6703 19.3863 17.8483 18.5323 17.2994L18.3662 17.1802L15.4522 14.856C14.2374 13.8866 14.5522 11.9834 15.9659 11.4322L16.1065 11.3824L19.6651 10.2769ZM20.1104 11.7086L16.5508 12.815C16.1684 12.9344 16.0747 13.433 16.3877 13.6832L19.3018 16.0064C19.4168 16.0981 19.5371 16.1169 19.6065 16.107C19.6218 16.1048 19.6332 16.1007 19.6397 16.0982C19.6446 16.0963 19.6476 16.0949 19.6485 16.0943L19.6494 16.0933C19.6503 16.0924 19.6549 16.0864 19.6612 16.0738C19.9899 15.4148 20.2281 14.711 20.3653 13.982C20.5024 13.2529 20.5365 12.5104 20.4698 11.7769C20.4686 11.7639 20.4664 11.7572 20.4659 11.7554C20.4655 11.7544 20.4649 11.7545 20.4649 11.7545C20.4645 11.7539 20.4625 11.7508 20.458 11.7466C20.4529 11.742 20.444 11.7347 20.4307 11.7271C20.3698 11.6926 20.2509 11.665 20.1104 11.7086ZM12.4932 2.99957C12.4924 1.8952 13.3963 0.977835 14.4766 1.20758C15.7095 1.46984 16.8845 1.97662 17.9297 2.70465C18.975 3.43276 19.8579 4.35974 20.5313 5.42535C21.121 6.35894 20.5741 7.52476 19.5381 7.9068L15.1885 9.50934L15.0664 9.55035C13.8396 9.91741 12.5819 9.04126 12.501 7.76324L12.4971 7.63434L12.4932 2.99957ZM14.1416 2.67242C14.1414 2.67251 14.1376 2.67302 14.1319 2.67633C14.1259 2.67982 14.1167 2.68638 14.1055 2.69684C14.0544 2.74474 13.9932 2.85129 13.9932 2.9986L13.9971 7.63239C13.9974 7.98004 14.3437 8.22128 14.67 8.10114L19.0196 6.49957C19.1576 6.44857 19.2354 6.35409 19.2627 6.28961C19.2687 6.27543 19.2713 6.26415 19.2725 6.25739C19.2734 6.25218 19.2735 6.2487 19.2735 6.24762V6.24567C19.2727 6.24355 19.2694 6.23675 19.2627 6.22614C18.6957 5.32893 17.9524 4.54816 17.0723 3.93512C16.1922 3.32212 15.2023 2.89521 14.1641 2.67438C14.1511 2.67163 14.1442 2.6714 14.1426 2.67145L14.1416 2.67242Z" fill="#282D32"/>
</svg>
