<svg width="24" height="24" viewBox="0 0 24 24" fill="none" xmlns="http://www.w3.org/2000/svg">
<path d="M9.65915 19.0342H9.70309L11.122 17.3633H11.9258L10.5195 18.9951L11.9384 21H11.1465L10.0615 19.4414L9.65915 19.917V21H8.99997V17.3633H9.65915V19.0342ZM13.747 17.3633C14.0262 17.3633 14.2609 17.4155 14.4502 17.5195C14.6406 17.6236 14.7847 17.7671 14.8818 17.9492C14.98 18.1303 15.0293 18.3366 15.0293 18.5674C15.0293 18.8005 14.98 19.0074 14.8818 19.1885C14.7836 19.3696 14.639 19.513 14.4472 19.6172C14.2555 19.7202 14.0188 19.7715 13.7383 19.7715H13.0429V21H12.3838V17.3633H13.747ZM16.2607 21H15.6015V17.3633H16.2607V21ZM13.0429 19.2295H13.6494C13.8126 19.2295 13.9466 19.2013 14.0508 19.1445C14.1549 19.0877 14.2325 19.0096 14.2822 18.9102C14.333 18.8108 14.3584 18.6963 14.3584 18.5674C14.3584 18.4385 14.333 18.3248 14.2822 18.2266C14.2325 18.1283 14.1541 18.0515 14.0488 17.9971C13.9448 17.9417 13.8106 17.9141 13.6465 17.9141H13.0429V19.2295ZM12.4941 3.67871C13.4188 3.67871 14.2178 3.88491 14.8906 4.2959C15.5633 4.70357 16.0827 5.29794 16.4472 6.08008C16.8118 6.86221 16.9915 7.81189 16.9883 8.92871C16.9883 10.0523 16.806 11.0137 16.4414 11.8125C16.0768 12.6112 15.5585 13.2233 14.8857 13.6475C14.2162 14.0683 13.4187 14.2783 12.4941 14.2783C11.5695 14.275 10.7704 14.0609 10.0976 13.6367C9.42508 13.2125 8.90646 12.6012 8.54196 11.8027C8.17738 11.004 7.99666 10.0457 7.99997 8.92871C8.00331 7.80855 8.1856 6.85734 8.54684 6.0752C8.9114 5.29306 9.42819 4.6977 10.0976 4.29004C10.7704 3.88241 11.5695 3.67875 12.4941 3.67871ZM12.4941 5.90625C12.017 5.90634 11.6277 6.14817 11.3261 6.63184C11.0246 7.1157 10.8699 7.88149 10.8633 8.92871C10.8599 9.64108 10.9282 10.2278 11.0674 10.6885C11.2066 11.1459 11.3992 11.4844 11.6445 11.7031C11.893 11.9217 12.1761 12.0312 12.4941 12.0312C12.9714 12.0312 13.363 11.7823 13.6679 11.2852C13.976 10.7847 14.1283 9.999 14.125 8.92871C14.125 8.2295 14.0552 7.65794 13.916 7.21387C13.7768 6.76986 13.585 6.44162 13.3398 6.22949C13.0945 6.01406 12.8123 5.90625 12.4941 5.90625Z" fill="#282D32"/>
</svg>
