<svg width="24" height="24" viewBox="0 0 24 24" fill="none" xmlns="http://www.w3.org/2000/svg">
<path d="M2 1.25C2.41421 1.25 2.75 1.58579 2.75 2V17C2.75 19.3472 4.65279 21.25 7 21.25H22C22.4142 21.25 22.75 21.5858 22.75 22C22.75 22.4142 22.4142 22.75 22 22.75H7C3.82436 22.75 1.25 20.1756 1.25 17V2C1.25 1.58579 1.58579 1.25 2 1.25ZM12.5 14C13.8807 14 15 15.1193 15 16.5C15 17.8807 13.8807 19 12.5 19C11.1193 19 10 17.8807 10 16.5C10 15.1193 11.1193 14 12.5 14ZM19.5 12C20.3284 12 21 12.6716 21 13.5C21 14.3284 20.3284 15 19.5 15C18.6716 15 18 14.3284 18 13.5C18 12.6716 18.6716 12 19.5 12ZM9 11C9.55228 11 10 11.4477 10 12C10 12.5523 9.55228 13 9 13C8.44772 13 8 12.5523 8 12C8 11.4477 8.44772 11 9 11ZM15 9C15.5523 9 16 9.44772 16 10C16 10.5523 15.5523 11 15 11C14.4477 11 14 10.5523 14 10C14 9.44772 14.4477 9 15 9ZM7.5 5C8.32843 5 9 5.67157 9 6.5C9 7.32843 8.32843 8 7.5 8C6.67157 8 6 7.32843 6 6.5C6 5.67157 6.67157 5 7.5 5ZM17.5 3C18.8807 3 20 4.11929 20 5.5C20 6.88071 18.8807 8 17.5 8C16.1193 8 15 6.88071 15 5.5C15 4.11929 16.1193 3 17.5 3Z" fill="#282D32"/>
</svg>
