<svg width="24" height="24" viewBox="0 0 24 24" fill="none" xmlns="http://www.w3.org/2000/svg">
<path d="M7.62866 17.7476C8.29734 16.8687 9.55658 16.7451 10.6218 17.0366C10.8322 17.0942 11.0472 17.1385 11.2644 17.1694C11.4815 17.2003 11.6998 17.2178 11.9177 17.2212C13.0222 17.2385 14.1968 17.7089 14.5935 18.7397L15.2322 20.3999C15.6287 21.4307 15.1145 22.6082 14.0291 22.812L13.5867 22.8853C12.6989 23.0147 11.7958 23.0352 10.8982 22.9448L10.45 22.8911C9.40517 22.7424 8.39093 22.4444 7.43823 22.0103L7.03394 21.8159C6.11009 21.3485 5.90744 20.1996 6.43628 19.3335L6.55151 19.1646L7.62866 17.7476ZM9.26538 18.4253C9.01115 18.4754 8.88813 18.5703 8.823 18.6558L7.74585 20.0718C7.65745 20.1882 7.63957 20.3115 7.6521 20.3882C7.65786 20.4227 7.66859 20.4416 7.67358 20.4487C7.67666 20.4531 7.68449 20.4637 7.71069 20.4771C8.6332 20.9438 9.62975 21.259 10.6609 21.4058C11.692 21.5525 12.7366 21.5281 13.7527 21.3374C13.7815 21.332 13.7923 21.3242 13.7966 21.3208C13.8033 21.3155 13.8184 21.3 13.8337 21.2681C13.8672 21.1979 13.8851 21.0754 13.8328 20.939L13.1931 19.2778C13.1544 19.1776 13.0631 19.0522 12.8328 18.9331C12.5916 18.8085 12.2568 18.7259 11.8943 18.7202C11.6135 18.7158 11.3321 18.6936 11.0525 18.6538C10.7728 18.614 10.4962 18.557 10.2253 18.4829C9.87586 18.3874 9.53163 18.3729 9.26538 18.4253ZM16.9509 4.24072C17.5802 3.4443 18.7284 3.23709 19.4871 3.94189C20.2563 4.65658 20.9212 5.4797 21.4597 6.38721L21.6824 6.78076C22.5737 8.43429 23.0272 10.2892 22.9988 12.1675C22.9702 14.0455 22.4612 15.8856 21.5203 17.5112C20.9905 18.4264 20.333 19.2568 19.572 19.979L19.239 20.2827C18.4075 21.0087 17.1649 20.6847 16.6003 19.7358L15.6912 18.2065C15.1266 17.2573 15.4828 16.0431 16.1521 15.1646L16.3435 14.897C16.4045 14.8055 16.463 14.7112 16.5183 14.6157L16.6765 14.3218C17.022 13.6257 17.2086 12.8594 17.2205 12.0796C17.234 11.1882 17.0184 10.3077 16.5955 9.52295C16.4907 9.32865 16.3735 9.14183 16.2458 8.96338C15.6034 8.06511 15.284 6.84045 15.8767 5.90869L16.8328 4.40771L16.9509 4.24072ZM18.3621 5.01611C18.2857 5.03097 18.176 5.08984 18.0974 5.21338L17.1423 6.71436C17.0847 6.80516 17.0376 6.95423 17.0789 7.21045C17.1221 7.47834 17.2558 7.79573 17.4666 8.09033C17.6308 8.32005 17.7809 8.56094 17.9158 8.81104C18.4603 9.82123 18.7368 10.9546 18.7195 12.1021C18.702 13.2495 18.3911 14.3744 17.8162 15.3677C17.6739 15.6133 17.5164 15.8493 17.3455 16.0737C17.1259 16.362 16.9826 16.6764 16.9314 16.9429C16.8826 17.1976 16.9253 17.3476 16.9802 17.4399L17.8894 18.9692C17.9644 19.0951 18.0723 19.1573 18.1482 19.1743C18.182 19.1818 18.203 19.1792 18.2117 19.1772C18.2167 19.1761 18.2293 19.1723 18.2517 19.1528C19.0318 18.4709 19.6984 17.6627 20.2214 16.7593C21.0341 15.3553 21.4741 13.7661 21.4988 12.144C21.5233 10.5221 21.1317 8.9206 20.3621 7.49268C19.8667 6.5737 19.2247 5.74587 18.4656 5.04053C18.4436 5.02018 18.4315 5.01648 18.4265 5.01514C18.4182 5.01293 18.3971 5.00936 18.3621 5.01611ZM3.01733 11.436L4.79272 11.5474C5.89504 11.6166 6.69685 12.5957 7.04468 13.644C7.06046 13.6916 7.07731 13.7395 7.09448 13.7866C7.11166 13.8338 7.12871 13.8816 7.14722 13.9282C7.55477 14.9547 7.57083 16.2192 6.77124 16.981L5.48315 18.2085L5.32788 18.3423C4.57925 18.9221 3.51514 18.8961 2.91577 18.186L2.79468 18.0229C2.39109 17.4061 2.0493 16.7488 1.77612 16.061L1.66382 15.7642C1.41033 15.068 1.22844 14.3495 1.11987 13.6206L1.07788 13.3071C0.9467 12.2105 1.91508 11.3669 3.01733 11.436ZM2.92358 12.9331C2.77724 12.924 2.66502 12.9777 2.60815 13.0308C2.58233 13.055 2.57312 13.0746 2.57007 13.0825C2.56806 13.0878 2.56381 13.1002 2.56714 13.1284C2.65357 13.8507 2.82284 14.5634 3.073 15.2505C3.32325 15.9377 3.65126 16.5928 4.04956 17.2017C4.06569 17.2263 4.07708 17.2332 4.08179 17.2358C4.08925 17.24 4.10965 17.2486 4.14526 17.2505C4.2229 17.2544 4.34305 17.2233 4.44897 17.1226L5.73706 15.895C5.81486 15.8208 5.89608 15.6878 5.91772 15.4292C5.94026 15.1588 5.88729 14.8186 5.75366 14.4819C5.72985 14.422 5.70644 14.361 5.68433 14.3003C5.66221 14.2396 5.64117 14.178 5.62085 14.1167C5.50679 13.7729 5.32852 13.4784 5.13745 13.2856C4.9543 13.1011 4.80634 13.0512 4.69897 13.0444L2.92358 12.9331ZM11.572 1.00928C12.5233 0.972262 13.4726 1.05897 14.3962 1.26514C15.4742 1.50585 15.9479 2.6996 15.5164 3.71631L14.821 5.354L14.7312 5.5376C14.2406 6.42207 13.1305 6.79976 12.0955 6.78076L11.7966 6.78369L11.5095 6.80225C10.8411 6.86532 10.1899 7.05728 9.59253 7.36768L9.34058 7.50732C8.76293 7.84925 8.25543 8.30016 7.84741 8.83545C7.78707 8.91464 7.72915 8.99634 7.67358 9.07861L7.55249 9.24756C6.96706 10.0252 6.07942 10.6215 5.14038 10.521L4.93921 10.4888L3.19897 10.1167C2.18682 9.89987 1.50495 8.94223 1.77124 7.98291L1.83765 7.79053C2.19976 6.91646 2.6739 6.08945 3.25073 5.33252C4.17186 4.12395 5.33333 3.11993 6.65991 2.3833L6.92749 2.23975C8.27587 1.53909 9.75431 1.12583 11.2683 1.0249L11.572 1.00928ZM11.6306 2.50732C10.2318 2.56179 8.86205 2.92539 7.61987 3.5708C6.37772 4.21632 5.29267 5.12835 4.44409 6.2417C3.94587 6.89546 3.53614 7.6098 3.22339 8.36475C3.21203 8.39232 3.21216 8.40549 3.21265 8.41064C3.21356 8.41941 3.21794 8.4403 3.23608 8.47021C3.27657 8.53665 3.37018 8.6192 3.51343 8.6499L5.25269 9.02197C5.35782 9.04448 5.51397 9.03669 5.73999 8.90869C5.97603 8.77489 6.22763 8.53892 6.43042 8.23877C6.50194 8.13288 6.5764 8.02818 6.65405 7.92627C7.25437 7.13862 8.02237 6.49331 8.90112 6.03662C9.77976 5.58011 10.7486 5.32326 11.738 5.28467C11.8662 5.27968 11.9949 5.27842 12.1228 5.28076C12.4851 5.28741 12.8229 5.21732 13.0681 5.10107C13.3026 4.98982 13.3981 4.86603 13.4402 4.76709L14.1355 3.12939C14.1926 2.99466 14.1792 2.87158 14.1482 2.80029C14.134 2.76785 14.1196 2.75227 14.113 2.74658C14.1091 2.7432 14.0986 2.73558 14.0691 2.729C13.2715 2.55101 12.452 2.47539 11.6306 2.50732Z" fill="#282D32"/>
</svg>
