<svg width="35" height="35" viewBox="0 0 35 35" fill="none" xmlns="http://www.w3.org/2000/svg">
<path d="M23.7334 0C29.9015 -1.25513e-07 34.9016 5.01461 34.9014 11.2002V15.3311C34.8121 15.3199 34.7212 15.3125 34.6289 15.3125H8.72656C7.52189 15.3125 6.54492 16.2919 6.54492 17.5C6.54492 18.7081 7.52189 19.6875 8.72656 19.6875H34.6289C34.7213 19.6875 34.812 19.6791 34.9014 19.668V23.7998C34.9011 29.9853 29.9004 34.9998 23.7324 35H11.168C4.99987 35 -0.000275959 29.9854 0 23.7998V11.2002C0.000275954 5.01472 5.001 0.000179231 11.1689 0H23.7334ZM8.72656 24.0625C7.52189 24.0625 6.54492 25.0419 6.54492 26.25C6.54492 27.4581 7.52189 28.4375 8.72656 28.4375H23.9951C25.1998 28.4375 26.1768 27.4581 26.1768 26.25C26.1768 25.0419 25.1998 24.0625 23.9951 24.0625H8.72656ZM8.72656 6.5625C7.52189 6.56254 6.54492 7.5419 6.54492 8.75C6.54492 9.9581 7.52189 10.9375 8.72656 10.9375C9.93112 10.9373 10.9072 9.95801 10.9072 8.75C10.9072 7.54199 9.93112 6.56268 8.72656 6.5625ZM15.2705 6.5625C14.0658 6.56254 13.0889 7.5419 13.0889 8.75C13.0889 9.9581 14.0658 10.9375 15.2705 10.9375H23.9951C25.1998 10.9375 26.1768 9.95812 26.1768 8.75C26.1768 7.54188 25.1998 6.5625 23.9951 6.5625H15.2705Z" fill="#EFC72D"/>
</svg>
